<svg xmlns="http://www.w3.org/2000/svg" viewBox="0 0 800 260">
<rect width="800" height="260" fill="white"/>
<g opacity=".95">
<path fill="#F7A8C8" d="M80 90l6 20 20 6-20 6-6 20-6-20-20-6 20-6z"/>
<path fill="#D3C3F3" d="M200 40l7 23 23 7-23 7-7 23-7-23-23-7 23-7z"/>
<path fill="#FFE29A" d="M350 120l6 20 20 6-20 6-6 20-6-20-20-6 20-6z"/>
<path fill="#BFE6D1" d="M510 55l7 23 23 7-23 7-7 23-7-23-23-7 23-7z"/>
<path fill="#B9D9F7" d="M680 130l7 23 23 7-23 7-7 23-7-23-23-7 23-7z"/>
<path fill="#F7A8C8" d="M610 210S585 196 585 178c0-13 18-16 25-3 7-13 25-10 25 3 0 18-25 32-25 32z"/>
<path fill="#F7A8C8" d="M260 220S238 208 238 192c0-11 16-14 22-3 6-11 22-8 22 3 0 16-22 28-22 28z"/>
</g></svg>